%
T01C0.011800
X011898Y006937
X010717Y005480
X009024Y007685
X007961Y007646
X007371Y006504
X007016Y007527
X010717Y012882
X011898Y024685
X010717Y023228
X009024Y025433
X007961Y025394
X007371Y024252
X007016Y025275
X010717Y030630
X011898Y042433
X010717Y040976
X009024Y043181
X007961Y043142
X007371Y042000
X007016Y043023
X010717Y048378
T02C0.021650
X010747Y011711
X012223Y011711
X012223Y017124
X010747Y017124
X009270Y017124
X007794Y017124
X007794Y011711
X009270Y011711
X005796Y004890
X004221Y004890
X010747Y029459
X012223Y029459
X012223Y034872
X010747Y034872
X009270Y034872
X007794Y034872
X007794Y029459
X009270Y029459
X005796Y022638
X004221Y022638
X010747Y047207
X012223Y047207
X012223Y052620
X010747Y052620
X009270Y052620
X007794Y052620
X007794Y047207
X009270Y047207
X005796Y040386
X004221Y040386
X029797Y017094
X031765Y017094
X036371Y016740
X038340Y016740
X038340Y012645
X036371Y012645
X040269Y021307
X030741Y017488
X029797Y042716
X031765Y042716
X036371Y042362
X038340Y042362
X038340Y038267
X036371Y038267
X040269Y046929
X030741Y043110
T03C0.037400
X010245Y003787
X004339Y003787
X003552Y003787
X004339Y018157
X005914Y018157
X011032Y003787
X010245Y021535
X004339Y021535
X003552Y021535
X004339Y035905
X005914Y035905
X011032Y021535
X010245Y039283
X004339Y039283
X003552Y039283
X004339Y053653
X005914Y053653
X011032Y039283
X022678Y003591
X022678Y004591
X022678Y005591
X022678Y006591
X022678Y011465
X022678Y012465
X022678Y018387
X022678Y019387
X022678Y020387
X022678Y021387
X022678Y026261
X022678Y027261
X022678Y033183
X022678Y034183
X022678Y035183
X022678Y036183
X022678Y041057
X022678Y042057
X045938Y013110
X045938Y014110
X045938Y015110
X045938Y016110
X045938Y012110
X045938Y011110
X045938Y010110
X045938Y009110
X045938Y038732
X045938Y039732
X045938Y040732
X045938Y041732
X045938Y037732
X045938Y036732
X045938Y035732
X045938Y034732
T04C0.063000
X036883Y008433
X034915Y008433
X032946Y008433
X030978Y008433
X031017Y022055
X032985Y022055
X034954Y022055
X029048Y022055
X036883Y034055
X034915Y034055
X032946Y034055
X030978Y034055
X031017Y047677
X032985Y047677
X034954Y047677
X029048Y047677
T05C0.126000
X046056Y004259
X026922Y004259
X026922Y025362
X046056Y025362
X046056Y029881
X026922Y029881
X026922Y050984
X046056Y050984
M30
