%
T01C0.021650
X011680Y005223
X011680Y003747
X017093Y003747
X017093Y005223
X017093Y006700
X017093Y008176
X011680Y008176
X011680Y006700
X004859Y010174
X004859Y011749
X006906Y004032
X005449Y005253
X007575Y006946
X008638Y008206
X007339Y008757
X006315Y008639
X012851Y005253
X011680Y019161
X011680Y017685
X017093Y017685
X017093Y019161
X017093Y020638
X017093Y022114
X011680Y022114
X011680Y020638
X004859Y024112
X004859Y025687
X006906Y017970
X005449Y019191
X007575Y020884
X008638Y022144
X007339Y022695
X006315Y022577
X012851Y019191
X011680Y033099
X011680Y031623
X017093Y031623
X017093Y033099
X017093Y034576
X017093Y036052
X011680Y036052
X011680Y034576
X004859Y038050
X004859Y039625
X006906Y031908
X005449Y033129
X007575Y034822
X008638Y036082
X007339Y036633
X006315Y036515
X012851Y033129
X011680Y047037
X011680Y045561
X017093Y045561
X017093Y047037
X017093Y048514
X017093Y049990
X011680Y049990
X011680Y048514
X004859Y051988
X004859Y053563
X006906Y045846
X005449Y047067
X007575Y048760
X008638Y050020
X007339Y050571
X006315Y050453
X012851Y047067
X011680Y060975
X011680Y059499
X017093Y059499
X017093Y060975
X017093Y062452
X017093Y063928
X011680Y063928
X011680Y062452
X004859Y065926
X004859Y067501
X006906Y059784
X005449Y061005
X007575Y062698
X008638Y063958
X007339Y064509
X006315Y064391
X012851Y061005
M30
